<svg width="256" height="256" viewBox="0 0 256 256" fill="none" xmlns="http://www.w3.org/2000/svg">
<g clip-path="url(#clip0_1_2)">
<rect width="256" height="256" rx="40" fill="#1B1B1B"/>
<path d="M54.5 108.031V110.531H57H75.0824V166.455V168.955H77.5824H85.5085H88.0085V166.455V110.531H106.091H108.591V108.031V101V98.5H106.091H57H54.5V101V108.031ZM154.163 118.231L155.408 114.864H151.818H143.636H141.856L141.274 116.545L129.829 149.583L118.385 116.545L117.802 114.864H116.023H107.841H104.251L105.496 118.231L123.649 167.322L124.253 168.955H125.994H133.665H135.406L136.009 167.322L154.163 118.231ZM153.641 108.031V110.531H156.141H174.223V166.455V168.955H176.723H184.649H187.149V166.455V110.531H205.232H207.732V108.031V101V98.5H205.232H156.141H153.641V101V108.031Z" fill="#4A4A4A" stroke="white" stroke-width="5"/>
</g>
<defs>
<clipPath id="clip0_1_2">
<rect width="256" height="256" fill="white"/>
</clipPath>
</defs>
</svg>
